<svg width="19" height="18" viewBox="0 0 19 18" fill="none" xmlns="http://www.w3.org/2000/svg">
<path d="M15.3333 2.67969H3.66667C2.74619 2.67969 2 3.39603 2 4.27968V15.4796C2 16.3632 2.74619 17.0796 3.66667 17.0796H15.3333C16.2538 17.0796 17 16.3632 17 15.4796V4.27968C17 3.39603 16.2538 2.67969 15.3333 2.67969Z" fill="black" stroke="black" stroke-width="1.5" stroke-linecap="round" stroke-linejoin="round"/>
<path d="M1 7.39941H18" stroke="white" stroke-width="1.5" stroke-linecap="round" stroke-linejoin="round"/>
<path d="M12.834 1V4.19998" stroke="black" stroke-width="1.5" stroke-linecap="round" stroke-linejoin="round"/>
<path d="M12.084 3.23675C12.084 3.65097 12.4198 3.98675 12.834 3.98675C13.2482 3.98675 13.584 3.65097 13.584 3.23675H12.084ZM12.084 1.95996V3.23675H13.584V1.95996H12.084Z" fill="white"/>
<path d="M6.16602 1V4.19998" stroke="black" stroke-width="1.5" stroke-linecap="round" stroke-linejoin="round"/>
<path d="M5.41602 3.23675C5.41602 3.65097 5.7518 3.98675 6.16602 3.98675C6.58023 3.98675 6.91602 3.65097 6.91602 3.23675H5.41602ZM5.41602 1.95996V3.23675H6.91602V1.95996H5.41602Z" fill="white"/>
</svg>
