<svg width="30" height="30" viewBox="0 0 30 30" fill="none" xmlns="http://www.w3.org/2000/svg">
<path d="M1 15C1 9.38215 1 6.57323 2.34824 4.55544C2.93191 3.68192 3.68192 2.93191 4.55544 2.34824C6.57323 1 9.38215 1 15 1C20.6178 1 23.4268 1 25.4446 2.34824C26.3181 2.93191 27.0681 3.68192 27.6518 4.55544C29 6.57323 29 9.38215 29 15C29 20.6178 29 23.4268 27.6518 25.4446C27.0681 26.3181 26.3181 27.0681 25.4446 27.6518C23.4268 29 20.6178 29 15 29C9.38215 29 6.57323 29 4.55544 27.6518C3.68192 27.0681 2.93191 26.3181 2.34824 25.4446C1 23.4268 1 20.6178 1 15Z" fill="white" stroke="#A6A6A6" stroke-width="2"/>
<path d="M26 4L4 26" stroke="#A6A6A6" stroke-width="1.5" stroke-linecap="round" stroke-linejoin="round"/>
<path d="M29 13L13 29" stroke="#A6A6A6" stroke-width="1.5" stroke-linecap="round" stroke-linejoin="round"/>
<path d="M17 1L1 17" stroke="#A6A6A6" stroke-width="1.5" stroke-linecap="round" stroke-linejoin="round"/>
</svg>
